<?xml version="1.0" encoding="UTF-8"?>
<svg version="1.1" xmlns="http://www.w3.org/2000/svg" width="559" height="446">
<path d="M0 0 C2.59543491 2.28776937 5.15947301 4.60403642 7.703125 6.94921875 C9.933932 9.01481342 9.933932 9.01481342 12.296875 10.64453125 C12.85890625 11.09183594 13.4209375 11.53914063 14 12 C14 12.66 14 13.32 14 14 C14.66 14 15.32 14 16 14 C16 14.66 16 15.32 16 16 C16.99 16.33 17.98 16.66 19 17 C21.77397056 19.97251651 24.22882221 23.2001397 26.73535156 26.39990234 C27.95698107 27.94557026 29.20850258 29.46746742 30.4609375 30.98828125 C51.36462291 56.93654689 62.65333162 89.36966194 62.39111328 122.58398438 C62.37500486 124.99927181 62.39108858 127.41288698 62.41015625 129.828125 C62.43326851 144.94018575 60.18304986 158.99619138 55.1875 173.3125 C54.83494141 174.34157471 54.48238281 175.37064941 54.11914062 176.4309082 C51.60166121 183.6286834 48.87210912 190.41062133 45 197 C44.37222656 198.07121094 43.74445313 199.14242187 43.09765625 200.24609375 C35.65203376 212.60782782 27.51356352 225.01211466 17 235 C16.40574219 235.61488281 15.81148438 236.22976563 15.19921875 236.86328125 C11.32579115 240.85704835 7.41456356 244.37819915 2.859375 247.578125 C0.91550721 248.99372455 0.91550721 248.99372455 -0.8828125 250.9296875 C-7.67628757 257.57275353 -16.82515473 262.22773583 -25 267 C-26.0725 267.639375 -27.145 268.27875 -28.25 268.9375 C-29.49611832 269.6320109 -30.74678212 270.3183834 -32 271 C-32.90234375 271.50144531 -33.8046875 272.00289063 -34.734375 272.51953125 C-81.82371394 297.47237473 -141.79649662 300.77756921 -192.33496094 285.28417969 C-201.88454178 282.23174627 -211.00014327 278.42272371 -220 274 C-221.175625 273.43152344 -222.35125 272.86304688 -223.5625 272.27734375 C-240.28130131 264.12841945 -255.14211333 253.93658583 -268.66796875 241.15625 C-270.99206079 238.95331849 -270.99206079 238.95331849 -273.6015625 236.93359375 C-296.49520765 218.47699058 -311.04474788 186.85470641 -318 159 C-318.3196875 157.79730469 -318.639375 156.59460938 -318.96875 155.35546875 C-325.07308257 127.91423299 -321.77228863 98.05729329 -312 72 C-311.39671875 70.38158203 -311.39671875 70.38158203 -310.78125 68.73046875 C-300.84025479 43.64288961 -281.84662888 15.01633091 -259 0 C-258.34 0 -257.68 0 -257 0 C-257 -0.66 -257 -1.32 -257 -2 C-254.9453125 -3.48046875 -254.9453125 -3.48046875 -252.125 -5.1875 C-248.29110293 -7.54870934 -244.57997646 -9.97855843 -240.9375 -12.625 C-236.17287143 -15.98563144 -231.27692399 -18.54375223 -226 -21 C-224.81921875 -21.56847656 -223.6384375 -22.13695313 -222.421875 -22.72265625 C-215.06912432 -26.24438033 -207.72350599 -29.36796723 -200 -32 C-199.03578125 -32.37640625 -198.0715625 -32.7528125 -197.078125 -33.140625 C-132.92826545 -56.93329591 -52.83363694 -43.17145431 0 0 Z M-165.94091797 -22.40136719 C-167.80957168 -22.0371193 -169.68776855 -21.72271053 -171.56640625 -21.4140625 C-188.87693225 -18.26669414 -205.63167797 -11.43636931 -221 -3 C-222.21084494 -2.3565966 -223.42178195 -1.71336646 -224.6328125 -1.0703125 C-236.55414528 5.37989293 -246.70252242 13.54473897 -256.5625 22.7734375 C-259 25 -259 25 -261.53515625 26.9609375 C-264.21858707 29.18082797 -266.26096343 31.53417897 -268.4375 34.25 C-269.21351563 35.21679688 -269.98953125 36.18359375 -270.7890625 37.1796875 C-273.10818829 40.13800697 -275.39008892 43.11741853 -277.61328125 46.1484375 C-278.6969822 47.59540722 -279.83486421 49.00183706 -280.9921875 50.390625 C-284.42698172 54.85452099 -286.56941996 59.94160908 -289 65 C-289.85658203 66.65515625 -289.85658203 66.65515625 -290.73046875 68.34375 C-294.47381496 75.81391551 -297.15729614 83.25095668 -299.375 91.3125 C-299.62572266 92.21919434 -299.87644531 93.12588867 -300.13476562 94.06005859 C-305.80140248 115.70455938 -304.04493051 139.40572065 -298.625 160.875 C-298.42817627 161.66052246 -298.23135254 162.44604492 -298.02856445 163.25537109 C-296.78890223 167.89388471 -295.17112828 172.02122977 -292.91088867 176.25952148 C-292 178 -292 178 -290.6875 181.1875 C-286.65089601 190.68539173 -281.45551424 199.14651023 -275.11328125 207.24609375 C-273.62987652 209.17918125 -272.22099484 211.17065179 -270.87109375 213.19921875 C-268.84153572 216.23720019 -266.64298703 218.47714874 -264 221 C-263.13568359 221.89525391 -263.13568359 221.89525391 -262.25390625 222.80859375 C-257.18996081 228.03556359 -251.76256825 232.56439996 -246 237 C-245.35417969 237.51304687 -244.70835937 238.02609375 -244.04296875 238.5546875 C-229.72419302 249.70826017 -213.21931275 258.33486339 -196.10620117 264.2487793 C-194.596098 264.78738918 -193.09718952 265.35779034 -191.60668945 265.94848633 C-184.45322561 268.72991008 -177.22044447 270.40201286 -169.69458008 271.81030273 C-167.69795933 272.18553434 -165.70556531 272.57901747 -163.71289062 272.97460938 C-114.33231715 282.55413079 -64.11399853 270.48303454 -22 244 C-21.12843262 243.46342773 -21.12843262 243.46342773 -20.23925781 242.91601562 C-18.79015874 241.99856379 -17.38962486 241.00526054 -16 240 C-16 239.34 -16 238.68 -16 238 C-15.33226562 237.81179688 -14.66453125 237.62359375 -13.9765625 237.4296875 C-9.73347801 235.39167054 -6.7468917 232.36874379 -3.375 229.125 C-2.66569336 228.44663086 -1.95638672 227.76826172 -1.22558594 227.06933594 C0.86143738 225.05796366 2.93301342 223.03193543 5 221 C5.5352832 220.48083008 6.07056641 219.96166016 6.62207031 219.42675781 C22.74243875 203.63249258 33.56485983 182.41880604 40 161 C40.29777344 160.04351562 40.59554688 159.08703125 40.90234375 158.1015625 C49.69304091 128.2744209 45.77818026 93.34812669 31 66 C30.42765625 64.92234375 29.8553125 63.8446875 29.265625 62.734375 C22.18805317 49.73774093 13.62524968 37.34563784 3 27 C2.443125 26.401875 1.88625 25.80375 1.3125 25.1875 C0.04781729 23.77636223 0.04781729 23.77636223 -2 24 C-2.2371875 23.41863281 -2.474375 22.83726563 -2.71875 22.23828125 C-15.21682603 0.40475208 -54.25640189 -12.17559801 -77 -19 C-81.62161276 -20.23076124 -86.29746178 -21.13664337 -91 -22 C-92.72927323 -22.3745083 -94.45844803 -22.74947152 -96.1875 -23.125 C-106.98076956 -25.21015595 -117.92125982 -25.23873779 -128.875 -25.25 C-130.03302628 -25.25200912 -130.03302628 -25.25200912 -131.21444702 -25.25405884 C-142.9702889 -25.24964764 -154.37189424 -24.65985175 -165.94091797 -22.40136719 Z " fill="#EFEEEE" transform="translate(409,99)"/>
<path d="M0 0 C0.86062042 -0.00970322 1.72124084 -0.01940643 2.60794067 -0.02940369 C5.38450812 -0.05428176 8.16083229 -0.06692416 10.9375 -0.07421875 C11.88268494 -0.07683716 12.82786987 -0.07945557 13.80169678 -0.08215332 C28.23759626 -0.08644598 41.870678 0.79198557 55.9375 4.23828125 C57.39124904 4.55649894 58.84565995 4.8717111 60.30078125 5.18359375 C78.21505369 9.17227728 93.3577374 16.1267349 107.9375 27.23828125 C109.30648437 28.22634766 109.30648437 28.22634766 110.703125 29.234375 C112.9375 31.23828125 112.9375 31.23828125 114.015625 33.1328125 C113.88749356 36.58595473 111.8746678 38.35001288 109.6875 40.92578125 C108.87796875 41.89902344 108.0684375 42.87226563 107.234375 43.875 C104.9375 46.23828125 104.9375 46.23828125 101.9375 47.23828125 C100.2109375 46.015625 100.2109375 46.015625 98.3125 44.17578125 C83.11976679 30.25602751 60.13390901 22.04970289 39.625 20.61328125 C38.63886719 20.53851563 37.65273438 20.46375 36.63671875 20.38671875 C31.40322413 20.1767158 26.17444329 20.2093922 20.9375 20.23828125 C21.18918945 20.98287598 21.44087891 21.7274707 21.70019531 22.49462891 C29.957789 46.96844118 29.957789 46.96844118 33 58.05078125 C34.28216292 62.41013516 35.83056883 66.66395583 37.37353516 70.93554688 C40.34645634 79.24283249 42.99639913 87.65293243 45.67919922 96.05737305 C47.66481705 102.27709096 49.66801106 108.48764745 51.75 114.67578125 C53.18799993 118.95065178 54.56433608 123.23518054 55.875 127.55078125 C58.99093129 137.78163256 62.31009413 147.97201676 66.0625 157.98828125 C67.44525297 161.72227409 68.57897123 165.45908816 69.625 169.30078125 C71.90581352 177.51534469 74.75089786 185.52428106 77.58862305 193.56079102 C79.54423773 199.12007674 81.45922927 204.6922829 83.28125 210.296875 C83.62349609 211.34029053 83.96574219 212.38370605 84.31835938 213.45874023 C84.94003914 216.24968033 85.01911347 217.62329757 83.9375 220.23828125 C82.23046875 221.65234375 82.23046875 221.65234375 80.125 222.86328125 C79.43792969 223.26804687 78.75085938 223.6728125 78.04296875 224.08984375 C77.34816406 224.46882812 76.65335938 224.8478125 75.9375 225.23828125 C75.27363281 225.63789063 74.60976563 226.0375 73.92578125 226.44921875 C71.9375 227.23828125 71.9375 227.23828125 69.7734375 227.08203125 C67.9375 226.23828125 67.9375 226.23828125 66.5625 222.73828125 C66.32660156 221.92875 66.09070313 221.11921875 65.84765625 220.28515625 C64.50267434 215.78264172 62.86840581 211.38845036 61.27001953 206.97070312 C59.35410319 201.59849917 57.67347143 196.16817239 56.01049805 190.71289062 C54.19072418 184.82005292 52.25497356 178.96660158 50.3125 173.11328125 C49.91804687 171.90929687 49.52359375 170.7053125 49.1171875 169.46484375 C48.735625 168.315 48.3540625 167.16515625 47.9609375 165.98046875 C47.44926025 164.43141846 47.44926025 164.43141846 46.92724609 162.85107422 C45.61780648 159.39433453 44.63910494 157.60161238 41.3125 155.87890625 C40.19875 155.42 39.085 154.96109375 37.9375 154.48828125 C37.330271 154.2358667 36.72304199 153.98345215 36.09741211 153.72338867 C30.18344096 151.28639014 24.21698327 148.97482029 18.24414062 146.68652344 C14.85244745 145.3861209 11.48412806 144.06113166 8.15234375 142.61328125 C5.74389894 141.58318092 3.43339006 140.69014758 0.9375 139.92578125 C-3.31250668 138.54070189 -7.47170724 136.94985252 -11.625 135.30078125 C-12.84316406 134.81738281 -14.06132812 134.33398438 -15.31640625 133.8359375 C-18.6571241 132.45299475 -21.87462791 130.87664983 -25.09545898 129.23608398 C-26.93107552 128.30494773 -28.78529407 127.41073825 -30.640625 126.51953125 C-46.8186025 118.71947419 -62.1856097 109.67482423 -76.0625 98.23828125 C-76.73152344 97.72136719 -77.40054688 97.20445312 -78.08984375 96.671875 C-87.68520105 89.03475388 -95.76906341 78.11766387 -99.0625 66.23828125 C-100.15777726 53.94825155 -98.51082644 45.01760334 -90.765625 35.21875 C-69.47677592 10.4631388 -31.61628044 0.29554358 0 0 Z M-74.0625 43.23828125 C-78.62343831 48.46643106 -81.54857918 52.72816539 -81.390625 59.94140625 C-79.79935729 71.08028025 -70.04387566 80.36005328 -61.5625 86.92578125 C-59.06341401 88.84181735 -59.06341401 88.84181735 -56.0625 89.23828125 C-56.0625 89.89828125 -56.0625 90.55828125 -56.0625 91.23828125 C-54.15556177 92.56536679 -52.183336 93.79907643 -50.1875 94.98828125 C-49.59759277 95.34172607 -49.00768555 95.6951709 -48.39990234 96.05932617 C-47.19535177 96.78046087 -45.98912661 97.49880572 -44.78125 98.21435547 C-43.25158522 99.12563588 -41.73422787 100.05750404 -40.21875 100.9921875 C-32.18726551 106.23754749 -32.18726551 106.23754749 -23.0625 108.23828125 C-19.57721264 97.87792662 -16.11141783 87.52378439 -12.953125 77.05859375 C-12.09171088 74.33078237 -11.1319061 71.66537286 -10.125 68.98828125 C-8.40833936 64.37475579 -6.98845672 59.71468468 -5.625 54.98828125 C-2.85609431 45.39390005 0.09535151 35.85040324 3.75 26.55078125 C5.1624742 23.19720866 5.1624742 23.19720866 4.9375 19.23828125 C-21.55914216 18.42160392 -53.85343928 24.66183024 -74.0625 43.23828125 Z M11.9375 57.23828125 C8.65367789 66.27973813 5.55897241 75.28691911 3.00390625 84.56640625 C1.74635492 88.89643647 0.32302196 93.15646054 -1.125 97.42578125 C-3.34473221 103.97364553 -5.3776857 110.52858218 -7.0625 117.23828125 C-5.7940625 117.71007812 -5.7940625 117.71007812 -4.5 118.19140625 C5.88985815 122.11121637 5.88985815 122.11121637 9.9375 124.30078125 C14.32321628 126.60954099 18.99410069 127.83364564 23.734375 129.22265625 C27.38722836 130.38087805 30.7834718 131.8411619 34.23046875 133.50390625 C35.93398425 134.37001039 35.93398425 134.37001039 37.9375 134.23828125 C37.5374785 130.43807697 36.59525511 127.23229929 35.125 123.73828125 C32.94111941 118.49539103 31.4492876 113.15201297 29.9375 107.68359375 C28.78173406 103.70161892 27.38016882 99.85680115 25.92578125 95.9765625 C24.89762366 93.12779385 23.99967767 90.26274469 23.125 87.36328125 C21.26455368 81.23344417 19.30993346 75.13736337 17.3125 69.05078125 C17.01110107 68.1170166 16.70970215 67.18325195 16.39916992 66.22119141 C16.11017822 65.34640137 15.82118652 64.47161133 15.5234375 63.5703125 C15.2661084 62.78374268 15.0087793 61.99717285 14.74365234 61.18676758 C14.00578904 59.05119513 14.00578904 59.05119513 11.9375 57.23828125 Z " fill="#F0EFEF" transform="translate(267.0625,89.76171875)"/>
<path d="M0 0 C16.3176425 5.6624655 34.44443779 23.10594717 42.1796875 38.3203125 C46.21311589 48.42309028 46.18460494 59.01043557 42 69 C33.49766395 84.74220402 18.60929204 92.67383918 3 100 C1.97048218 100.50370117 1.97048218 100.50370117 0.92016602 101.01757812 C-30.62742199 115.92362713 -74.28947648 115.58145501 -108 109 C-108.85400391 108.83371094 -109.70800781 108.66742188 -110.58789062 108.49609375 C-126.11825636 105.32663135 -144.44941114 100.13080951 -157 90 C-157 89.34 -157 88.68 -157 88 C-157.515625 87.773125 -158.03125 87.54625 -158.5625 87.3125 C-160.69116905 86.16629359 -162.67970148 84.96766362 -164.6875 83.625 C-165.28949219 83.22539062 -165.89148438 82.82578125 -166.51171875 82.4140625 C-168.41239817 80.60816762 -168.89265697 79.62502507 -169 77 C-167.63671875 74.859375 -167.63671875 74.859375 -165.6875 72.75 C-165.05199219 72.04359375 -164.41648438 71.3371875 -163.76171875 70.609375 C-162 69 -162 69 -160 69 C-159.67 68.01 -159.34 67.02 -159 66 C-154.40712219 66.4956343 -152.17219914 68.22805807 -148.75 71.25 C-141.58775649 77.56464073 -133.7145936 81.45612823 -124.75 84.5625 C-123.89736572 84.85914551 -123.04473145 85.15579102 -122.16625977 85.46142578 C-104.14987813 91.47619372 -85.71030559 93.21827633 -66.8125 93.1875 C-66.12546997 93.18689575 -65.43843994 93.1862915 -64.73059082 93.18566895 C-54.66137238 93.1616346 -44.92638368 92.83664639 -35 91 C-34.29117676 90.8870459 -33.58235352 90.7740918 -32.85205078 90.65771484 C-13.75285974 87.60984137 10.72756434 80.06194129 23 64 C25.61554268 59.79047339 26.32469071 56.09853085 25.6875 51.1875 C23.42017358 42.14601426 16.78671432 35.11291977 9.6640625 29.4375 C5.96845559 26.24505084 5.25938473 22.54227528 4 18 C2.67388495 14.38936818 1.30656876 10.79707878 -0.07421875 7.20703125 C-0.9580488 4.14532462 -1.18204646 2.88705892 0 0 Z " fill="#F1EFF0" transform="translate(347,246)"/>
<path d="M0 0 C3.94949704 0.62816498 7.19892028 1.8645529 10.8125 3.5625 C11.78832031 4.01753906 12.76414063 4.47257813 13.76953125 4.94140625 C14.50558594 5.29074219 15.24164063 5.64007813 16 6 C16.1453787 10.12611174 15.78609 13.39992471 14.49609375 17.31640625 C14.17133057 18.31647705 13.84656738 19.31654785 13.51196289 20.34692383 C13.15739014 21.40806396 12.80281738 22.4692041 12.4375 23.5625 C12.07325928 24.67584717 11.70901855 25.78919434 11.33374023 26.9362793 C10.23231637 30.29419711 9.11844186 33.64771643 8 37 C7.69610352 37.91330078 7.39220703 38.82660156 7.07910156 39.76757812 C5.96681669 43.10825502 4.85267631 46.44828296 3.73193359 49.78613281 C-0.29928786 61.81777839 -4.13654948 73.91369168 -8 86 C-11.58501006 86.91684839 -12.62333693 87.1734446 -16.11328125 85.56640625 C-17.69689453 84.57447266 -17.69689453 84.57447266 -19.3125 83.5625 C-20.38113281 82.90378906 -21.44976562 82.24507813 -22.55078125 81.56640625 C-23.35902344 81.04949219 -24.16726562 80.53257812 -25 80 C-24.45534599 74.539475 -23.43710324 69.62591961 -21.62890625 64.43359375 C-21.27183342 63.37702072 -21.27183342 63.37702072 -20.907547 62.29910278 C-20.1325353 60.00957504 -19.34744797 57.72363786 -18.5625 55.4375 C-17.46933266 52.21726808 -16.3813764 48.99528072 -15.29296875 45.7734375 C-15.01753235 44.96054764 -14.74209595 44.14765778 -14.45831299 43.31013489 C-11.45450312 34.42868523 -8.58797254 25.5040136 -5.74026489 16.57150269 C-5.14840451 14.71523859 -4.5547115 12.85955912 -3.9609375 11.00390625 C-3.62884277 9.96049072 -3.29674805 8.9170752 -2.95458984 7.84204102 C-2.0613335 5.18260442 -1.07058192 2.59245255 0 0 Z " fill="#ECEBEB" transform="translate(233,230)"/>
<path d="M0 0 C2.41700987 0.14129287 4.83350429 0.28786487 7.25 0.4375 C8.27287109 0.49647461 8.27287109 0.49647461 9.31640625 0.55664062 C14.6039891 0.89032304 14.6039891 0.89032304 16.85113525 1.51268005 C19.62580786 2.14192082 22.20822583 2.11940449 25.05371094 2.11352539 C26.88515656 2.11341209 26.88515656 2.11341209 28.75360107 2.11329651 C30.06725647 2.10813522 31.38091187 2.10297394 32.734375 2.09765625 C34.0962926 2.09579021 35.45821088 2.09436718 36.82012939 2.09336853 C40.39741889 2.08955803 43.97466752 2.07974032 47.55194092 2.06866455 C51.20519457 2.05841884 54.85845486 2.05386415 58.51171875 2.04882812 C65.67449776 2.03811669 72.83724314 2.02105794 80 2 C80 2.33 80 2.66 80 3 C59.65994206 6.3305358 17.74518312 11.83012208 0 0 Z " fill="#A9A5A6" transform="translate(236,353)"/>
<path d="M0 0 C2.8039309 0.01072063 5.60722131 0.0000542 8.41113281 -0.01269531 C17.74540454 -0.01889831 26.66657231 0.18321831 35.80957031 2.26074219 C35.80957031 2.59074219 35.80957031 2.92074219 35.80957031 3.26074219 C28.92643744 3.36520795 22.11462816 3.26445769 15.24707031 2.76074219 C7.15006193 2.1776243 -0.86056126 1.81965934 -8.94042969 2.76074219 C-15.99429028 3.58176531 -23.10102109 3.33990432 -30.19042969 3.26074219 C-30.19042969 2.93074219 -30.19042969 2.60074219 -30.19042969 2.26074219 C-20.14514274 -0.0218049 -10.25046677 -0.04660933 0 0 Z " fill="#999596" transform="translate(276.1904296875,89.7392578125)"/>
<path d="M0 0 C2.91517292 1.07401108 4.77810176 1.77810176 7 4 C6.34 4 5.68 4 5 4 C5.23715399 6.13438591 5.47528781 8.26866819 5.71875 10.40234375 C5.9049058 12.12169943 6.07187523 13.8432505 6.21875 15.56640625 C6.2909375 16.36949219 6.363125 17.17257812 6.4375 18 C6.49808594 18.7425 6.55867188 19.485 6.62109375 20.25 C6.80865234 21.11625 6.80865234 21.11625 7 22 C7.66 22.33 8.32 22.66 9 23 C9 24.65 9 26.3 9 28 C5.52391975 25.31393799 5.14517314 22.11087794 4 18 C2.67388495 14.38936818 1.30656876 10.79707878 -0.07421875 7.20703125 C-0.9580488 4.14532462 -1.18204646 2.88705892 0 0 Z " fill="#B1ADAE" transform="translate(347,246)"/>
<path d="M0 0 C0 0.66 0 1.32 0 2 C-1.51870698 2.485864 -3.04010699 2.96331201 -4.5625 3.4375 C-5.40941406 3.70433594 -6.25632812 3.97117187 -7.12890625 4.24609375 C-13.90625616 6.02572441 -20.48524151 6.12756793 -27.4375 6.0625 C-28.35982422 6.05798828 -29.28214844 6.05347656 -30.23242188 6.04882812 C-32.48835048 6.03713938 -34.74413967 6.02075455 -37 6 C-37 5.67 -37 5.34 -37 5 C-35.20369141 4.83564453 -35.20369141 4.83564453 -33.37109375 4.66796875 C-24.07980896 3.77678735 -15.02553731 2.5882158 -5.90625 0.5859375 C-3 0 -3 0 0 0 Z " fill="#A29D9F" transform="translate(326,369)"/>
<path d="M0 0 C0.75410156 0.00451172 1.50820313 0.00902344 2.28515625 0.01367188 C4.14847127 0.02546501 6.01174555 0.04340058 7.875 0.0625 C7.545 1.7125 7.215 3.3625 6.875 5.0625 C6.545 4.0725 6.215 3.0825 5.875 2.0625 C5.07578125 2.1346875 4.2765625 2.206875 3.453125 2.28125 C-4.09542127 2.91915532 -11.5511308 3.1853195 -19.125 3.0625 C-19.125 2.7325 -19.125 2.4025 -19.125 2.0625 C-18.18527344 1.97162109 -18.18527344 1.97162109 -17.2265625 1.87890625 C-16.00066406 1.75322266 -16.00066406 1.75322266 -14.75 1.625 C-13.93789062 1.54378906 -13.12578125 1.46257812 -12.2890625 1.37890625 C-2.65422772 -0.02979703 -2.65422772 -0.02979703 0 0 Z " fill="#A4A1A2" transform="translate(266.125,106.9375)"/>
<path d="M0 0 C0.33 0.66 0.66 1.32 1 2 C-1.23469868 8.48062619 -7.60965239 12.30074184 -13 16 C-13.66 15.67 -14.32 15.34 -15 15 C-10.05 10.05 -5.1 5.1 0 0 Z " fill="#BAB7B8" transform="translate(144,104)"/>
<path d="M0 0 C0.33 0 0.66 0 1 0 C1.08733513 3.08315385 1.14050127 6.16598827 1.1875 9.25 C1.21263672 10.12269531 1.23777344 10.99539062 1.26367188 11.89453125 C1.33775491 18.36444991 1.33775491 18.36444991 -0.38671875 21.609375 C-2 23 -2 23 -4 23 C-3.71125 21.80375 -3.4225 20.6075 -3.125 19.375 C-1.69217536 12.97846144 -0.86816562 6.49277054 0 0 Z " fill="#B0AFAF" transform="translate(453,235)"/>
<path d="M0 0 C4.62 0 9.24 0 14 0 C14 0.66 14 1.32 14 2 C10.37 2.33 6.74 2.66 3 3 C3.66 5.97 4.32 8.94 5 12 C2 10 2 10 1.26953125 7.6171875 C0.84635417 5.078125 0.42317708 2.5390625 0 0 Z " fill="#A29C9E" transform="translate(285,107)"/>
<path d="M0 0 C0.33 0 0.66 0 1 0 C1 2.97 1 5.94 1 9 C0.34 9 -0.32 9 -1 9 C-1.103125 9.70125 -1.20625 10.4025 -1.3125 11.125 C-2.09359003 14.39137647 -3.42058743 17.0471852 -5 20 C-6 18 -6 18 -5.56274414 16.12060547 C-5.30614014 15.37697754 -5.04953613 14.63334961 -4.78515625 13.8671875 C-4.51123047 13.06152344 -4.23730469 12.25585938 -3.95507812 11.42578125 C-3.51325195 10.16314453 -3.51325195 10.16314453 -3.0625 8.875 C-2.77181641 8.02550781 -2.48113281 7.17601562 -2.18164062 6.30078125 C-1.46106999 4.19813251 -0.73361685 2.09812523 0 0 Z " fill="#AFACAD" transform="translate(218,275)"/>
<path d="M0 0 C6.55925943 0.38979206 11.94526627 1.42113193 18 4 C18 4.33 18 4.66 18 5 C11.09647445 5.51137226 6.25172386 3.86964374 0 1 C0 0.67 0 0.34 0 0 Z " fill="#ACA6A7" transform="translate(323,95)"/>
<path d="M0 0 C-1.95303743 2.8074913 -3.1912285 3.03626747 -6.625 3.6875 C-11.0800167 4.10153501 -15.53010109 4.09312289 -20 4 C-20 3.67 -20 3.34 -20 3 C-6.3667426 -0.44419134 -6.3667426 -0.44419134 0 0 Z " fill="#A7A1A3" transform="translate(246,93)"/>
<path d="M0 0 C2.02225194 3.0333779 2.99347524 5.61344489 4.125 9.0625 C4.47820312 10.12597656 4.83140625 11.18945312 5.1953125 12.28515625 C6 15 6 15 6 17 C5.34 17 4.68 17 4 17 C-0.59225513 5.47835991 -0.59225513 5.47835991 0 0 Z " fill="#928C90" transform="translate(327,233)"/>
<path d="M0 0 C5.17930997 1.24303439 8.70166639 2.85487785 13 6 C10 7 10 7 7.51953125 6.00390625 C6.62621094 5.52824219 5.73289062 5.05257812 4.8125 4.5625 C3.91144531 4.08941406 3.01039063 3.61632812 2.08203125 3.12890625 C1.39496094 2.75636719 0.70789063 2.38382812 0 2 C0 1.34 0 0.68 0 0 Z " fill="#A8A4A5" transform="translate(348,102)"/>
<path d="M0 0 C0.66 0 1.32 0 2 0 C2.33 2.31 2.66 4.62 3 7 C3.99 7.33 4.98 7.66 6 8 C6.12375 8.804375 6.2475 9.60875 6.375 10.4375 C6.684375 11.7059375 6.684375 11.7059375 7 13 C7.66 13.33 8.32 13.66 9 14 C8.01 14 7.02 14 6 14 C5.17886823 12.60922699 4.36847505 11.21211107 3.5625 9.8125 C3.11003906 9.03519531 2.65757812 8.25789062 2.19140625 7.45703125 C0.97608501 4.95068023 0.42373425 2.74209635 0 0 Z " fill="#9C9A9B" transform="translate(169,157)"/>
<path d="M0 0 C4.72065967 1.54269924 9.41664092 3.07794619 14 5 C10.30962722 6.37095624 8.29116165 5.60010967 4.75 4.0625 C3.85796875 3.68222656 2.9659375 3.30195313 2.046875 2.91015625 C1.37140625 2.60980469 0.6959375 2.30945313 0 2 C0 1.34 0 0.68 0 0 Z " fill="#989494" transform="translate(212,327)"/>
<path d="M0 0 C0.66 0 1.32 0 2 0 C4.09350689 3.4019487 4.17942163 6.05272412 4 10 C1.5625 9.625 1.5625 9.625 -1 9 C-1.33 8.34 -1.66 7.68 -2 7 C-0.68 7.33 0.64 7.66 2 8 C1.34 5.36 0.68 2.72 0 0 Z " fill="#B5AEB0" transform="translate(303,216)"/>
<path d="M0 0 C2.64 0 5.28 0 8 0 C5.20392978 1.46491151 2.42993234 2.62245922 -0.5625 3.625 C-1.70912109 4.01558594 -1.70912109 4.01558594 -2.87890625 4.4140625 C-5 5 -5 5 -8 5 C-8 4.34 -8 3.68 -8 3 C-5.36 2.67 -2.72 2.34 0 2 C0 1.34 0 0.68 0 0 Z " fill="#A19F9D" transform="translate(230,112)"/>
<path d="M0 0 C0.33 0.66 0.66 1.32 1 2 C-0.625 4.5 -0.625 4.5 -3 7 C-6.25 7.3125 -6.25 7.3125 -9 7 C-6.03716687 4.61327331 -3.05729491 2.2646629 0 0 Z " fill="#C0BEBF" transform="translate(364,316)"/>
<path d="M0 0 C0.33 0 0.66 0 1 0 C1.46450943 6.50313209 0.32575612 10.4174808 -3 16 C-4.57159226 12.85681547 -3.04018399 10.07066611 -2.0625 6.875 C-1.86720703 6.21628906 -1.67191406 5.55757812 -1.47070312 4.87890625 C-0.98695014 3.25066448 -0.49430925 1.62506818 0 0 Z " fill="#9C8F92" transform="translate(96,173)"/>
<path d="M0 0 C1.32 0.33 2.64 0.66 4 1 C3.01 1 2.02 1 1 1 C0.71125 1.78375 0.4225 2.5675 0.125 3.375 C-1 6 -1 6 -3 8 C-3.99 7.67 -4.98 7.34 -6 7 C-4.625 5 -4.625 5 -3 3 C-2.34 3 -1.68 3 -1 3 C-0.67 2.01 -0.34 1.02 0 0 Z " fill="#B0AEAF" transform="translate(188,312)"/>
<path d="M0 0 C0.99 0.33 1.98 0.66 3 1 C4.125 3.875 4.125 3.875 5 7 C5.33 7.99 5.66 8.98 6 10 C5.01 11.485 5.01 11.485 4 13 C2.68 8.71 1.36 4.42 0 0 Z " fill="#A7A1A3" transform="translate(316,257)"/>
<path d="M0 0 C4.95 1.98 4.95 1.98 10 4 C10 5.98 10 7.96 10 10 C9.67 10 9.34 10 9 10 C9 8.35 9 6.7 9 5 C7.88625 4.9175 6.7725 4.835 5.625 4.75 C4.42875 4.5025 3.2325 4.255 2 4 C1.34 2.68 0.68 1.36 0 0 Z " fill="#989798" transform="translate(239,232)"/>
<path d="M0 0 C0.33 0.66 0.66 1.32 1 2 C2.65 2 4.3 2 6 2 C2.30827405 5.53790403 -1.09390595 5.59115883 -6 6 C-2.25 3 -2.25 3 0 3 C0 2.01 0 1.02 0 0 Z " fill="#A8A4A6" transform="translate(339,345)"/>
<path d="M0 0 C4.28477792 2.30718811 7.72291137 4.32966073 11 8 C8.69 7.34 6.38 6.68 4 6 C4 5.34 4 4.68 4 4 C2.68 3.34 1.36 2.68 0 2 C0 1.34 0 0.68 0 0 Z " fill="#AAA9A9" transform="translate(354,250)"/>
<path d="M0 0 C1.18414294 3.55242882 0.69535532 4.69830562 -0.4375 8.1875 C-0.72496094 9.08855469 -1.01242187 9.98960937 -1.30859375 10.91796875 C-1.53675781 11.60503906 -1.76492188 12.29210937 -2 13 C-2.33 13 -2.66 13 -3 13 C-2.88610125 11.20759337 -2.75852313 9.41605165 -2.625 7.625 C-2.55539062 6.62726563 -2.48578125 5.62953125 -2.4140625 4.6015625 C-2 2 -2 2 0 0 Z " fill="#9D9B9C" transform="translate(270,171)"/>
<path d="M0 0 C1.28222189 3.03070628 0.98589446 4.03596914 -0.25 7.1875 C-2 10 -2 10 -5 11 C-3.55049545 7.2089881 -1.84827434 3.6125362 0 0 Z " fill="#ADACAD" transform="translate(109,146)"/>
<path d="M0 0 C1.32 0.33 2.64 0.66 4 1 C2.02 3.31 0.04 5.62 -2 8 C-3 4 -3 4 -2 2 C-1.34 2 -0.68 2 0 2 C0 1.34 0 0.68 0 0 Z " fill="#B0A8AA" transform="translate(140,130)"/>
<path d="M0 0 C7.38461538 0.49230769 7.38461538 0.49230769 10.5 3.0625 C10.995 3.701875 11.49 4.34125 12 5 C10.37276701 4.54965877 8.74826336 4.08944646 7.125 3.625 C5.76761719 3.24214844 5.76761719 3.24214844 4.3828125 2.8515625 C2 2 2 2 0 0 Z " fill="#979394" transform="translate(195,375)"/>
<path d="M0 0 C4.455 1.98 4.455 1.98 9 4 C8.34 4.66 7.68 5.32 7 6 C7 5.34 7 4.68 7 4 C4.69 4 2.38 4 0 4 C0 2.68 0 1.36 0 0 Z " fill="#979697" transform="translate(190,353)"/>
<path d="M0 0 C0.66 0.33 1.32 0.66 2 1 C1.01 2.485 1.01 2.485 0 4 C-0.99 4 -1.98 4 -3 4 C-3 4.66 -3 5.32 -3 6 C-4.65 6 -6.3 6 -8 6 C-5.38485683 3.87961365 -2.80362384 1.86908256 0 0 Z " fill="#9E9C9C" transform="translate(385,343)"/>
<path d="M0 0 C1.32 0 2.64 0 4 0 C4.33 0.66 4.66 1.32 5 2 C6.64363134 2.72159424 8.31050386 3.39351421 10 4 C10 4.66 10 5.32 10 6 C5.56909529 4.79157144 3.01887244 3.48331435 0 0 Z " fill="#8E8C8D" transform="translate(194,337)"/>
<path d="M0 0 C0 0.99 0 1.98 0 3 C-6.96428571 6.34821429 -6.96428571 6.34821429 -11 5 C-9.54462432 4.16151196 -8.08559627 3.32936066 -6.625 2.5 C-5.81289062 2.0359375 -5.00078125 1.571875 -4.1640625 1.09375 C-2 0 -2 0 0 0 Z " fill="#9E9799" transform="translate(186,77)"/>
<path d="M0 0 C0.33 0.99 0.66 1.98 1 3 C-0.4375 5.6875 -0.4375 5.6875 -2 8 C-3.32 7.67 -4.64 7.34 -6 7 C-4.02 4.69 -2.04 2.38 0 0 Z " fill="#BCBBBB" transform="translate(420,312)"/>
<path d="M0 0 C0 0.66 0 1.32 0 2 C-1.32 2.33 -2.64 2.66 -4 3 C-4 3.66 -4 4.32 -4 5 C-5.65 5 -7.3 5 -9 5 C-6.45523312 2.20075644 -3.92372883 0 0 0 Z " fill="#AFA7A7" transform="translate(207,104)"/>
<path d="M0 0 C4.16138263 -0.08159574 7.9472484 0.01751476 12 1 C12 1.33 12 1.66 12 2 C9.69 2.66 7.38 3.32 5 4 C4.67 3.01 4.34 2.02 4 1 C1.98491642 0.26676204 1.98491642 0.26676204 0 0 Z " fill="#9E9595" transform="translate(309,58)"/>
<path d="M0 0 C3.41021743 0.78697325 6.68885166 1.87119943 10 3 C10 3.33 10 3.66 10 4 C6.05272412 4.17942163 3.4019487 4.09350689 0 2 C0 1.34 0 0.68 0 0 Z " fill="#AEA5AD" transform="translate(199,358)"/>
<path d="M0 0 C3.875 1.875 3.875 1.875 5 3 C5.14115161 5.67058851 5.04247107 8.32432238 5 11 C4.67 11 4.34 11 4 11 C3.79503906 10.37351562 3.59007812 9.74703125 3.37890625 9.1015625 C3.10949219 8.28429687 2.84007812 7.46703125 2.5625 6.625 C2.16224609 5.40683594 2.16224609 5.40683594 1.75390625 4.1640625 C1.04820271 1.98968201 1.04820271 1.98968201 0 0 Z " fill="#999396" transform="translate(369,288)"/>
<path d="M0 0 C2.29633824 3.44450737 2.54016485 5.93812283 3 10 C2.34 10 1.68 10 1 10 C-0.1577506 6.52674819 -0.06866652 3.63932552 0 0 Z " fill="#AFABAB" transform="translate(313,190)"/>
<path d="M0 0 C2.31 1.98 4.62 3.96 7 6 C5.68 6.33 4.36 6.66 3 7 C1 4 1 4 0 0 Z " fill="#AEAAAA" transform="translate(412,102)"/>
<path d="M0 0 C1 3 1 3 0.0625 5.1875 C-0.4634375 6.0846875 -0.4634375 6.0846875 -1 7 C-2.65 6.67 -4.3 6.34 -6 6 C-5.38125 5.7525 -4.7625 5.505 -4.125 5.25 C-1.64931313 3.79371361 -1.04874998 2.62187494 0 0 Z " fill="#878284" transform="translate(225,310)"/>
<path d="M0 0 C-1.28913487 0.67154933 -2.58140204 1.33708859 -3.875 2 C-4.59429687 2.37125 -5.31359375 2.7425 -6.0546875 3.125 C-8 4 -8 4 -10 4 C-9.67 3.01 -9.34 2.02 -9 1 C-2.63157895 -1.31578947 -2.63157895 -1.31578947 0 0 Z " fill="#999798" transform="translate(212,122)"/>
</svg>
